/vscmnt/brussel_pixiu_data/_data_brussel/112/vsc11236/PredSimResults/SUBJ07opt3D/weighted-LRposFixed/trackIG/worker_04.mot
version=1
nRows=8
nColumns=50
inDegrees=yes
endheader
                time	         pelvis_tilt	         pelvis_list	     pelvis_rotation	           pelvis_tx	           pelvis_ty	           pelvis_tz	       hip_flexion_r	     hip_adduction_r	      hip_rotation_r	        knee_angle_r	       ankle_angle_r	         mtp_angle_r	       hip_flexion_l	     hip_adduction_l	      hip_rotation_l	        knee_angle_l	       ankle_angle_l	         mtp_angle_l	    lumbar_extension	      lumbar_bending	     lumbar_rotation	 ercspn_r/activation	 intobl_r/activation	 extobl_r/activation	    abd_r/activation	    add_r/activation	hamstrings_r/activation	bifemsh_r/activation	glut_max_r/activation	iliopsoas_r/activation	rect_fem_r/activation	  vasti_r/activation	gastroc_r/activation	 soleus_r/activation	tib_ant_r/activation	 ercspn_l/activation	 intobl_l/activation	 extobl_l/activation	    abd_l/activation	    add_l/activation	hamstrings_l/activation	bifemsh_l/activation	glut_max_l/activation	iliopsoas_l/activation	rect_fem_l/activation	  vasti_l/activation	gastroc_l/activation	 soleus_l/activation	tib_ant_l/activation	
          0.55605456	         -4.23058105	          0.17568779	         -9.51836442	          0.67838656	          0.84640910	          0.01453998	        -14.44015838	         -0.05612166	          5.27389994	         -9.35256234	          8.31874239	         29.46205777	         31.34493422	         -2.81046927	         -6.06326182	         -9.16576712	          2.74227087	          0.27214435	        -12.03508509	          1.24373334	          1.73388038	          0.11407587	          0.00999999	          0.00999999	          0.03221588	          0.06417807	          0.01730839	          0.17114015	          0.01974188	          0.46185913	          0.01185326	          0.01000000	          0.17415033	          0.32879158	          0.01665487	          0.12699594	          0.11901504	          0.01000000	          0.01461586	          0.19149681	          0.08825929	          0.10485691	          0.11975131	          0.04619810	          0.01000004	          0.01000000	          0.01000000	          0.01000000	          0.42783177	
          0.56717565	         -4.22391601	          0.11513922	         -9.55766856	          0.69491585	          0.84464455	          0.01400424	        -14.91014153	         -0.14559060	          4.97492272	        -10.51930087	          7.36872981	         31.10217402	         31.30145126	         -2.62768557	         -5.75382755	        -11.06474957	          2.39315268	          0.24884106	        -11.85918149	          0.89573316	          1.93294208	          0.13979587	          0.00999999	          0.01000000	          0.02717833	          0.10073686	          0.01460204	          0.15615230	          0.01665487	          0.45149245	          0.01000000	          0.00999999	          0.14691872	          0.30792999	          0.01405057	          0.10713779	          0.12539109	          0.00999999	          0.01233040	          0.18342647	          0.07709728	          0.09771922	          0.18329121	          0.03897418	          0.01000000	          0.00999999	          0.01282405	          0.01185350	          0.47619140	
          0.57829674	         -4.21198829	          0.04243488	         -9.54119802	          0.71158419	          0.84310365	          0.01340320	        -15.16530072	         -0.19467400	          4.62503114	        -12.09778612	          6.30208732	         32.71186608	         31.09960423	         -2.47839308	         -5.40899896	        -12.73158736	          2.00921132	          0.23958693	        -11.68355719	          0.55634137	          2.11920302	          0.16169068	          0.00999999	          0.00999999	          0.02292850	          0.09185386	          0.01244229	          0.13324629	          0.01405058	          0.39049657	          0.01000000	          0.00999999	          0.12394528	          0.28424012	          0.01185351	          0.13684336	          0.10578389	          0.00999999	          0.08435286	          0.18998619	          0.06819761	          0.09217552	          0.19581172	          0.03287985	          0.00999999	          0.00999999	          0.01081877	          0.00999999	          0.55016927	
          0.58941783	         -4.19632059	         -0.04840945	         -9.46990451	          0.72819017	          0.84192656	          0.01271398	        -15.15532668	         -0.19887507	          4.22973591	        -14.13435566	          5.07230042	         34.22735268	         30.83101156	         -2.34247357	         -5.12869374	        -14.27495462	          1.63154328	          0.21869437	        -11.52811825	          0.23341600	          2.28959789	          0.19926476	          0.00999999	          0.00999999	          0.01934321	          0.08614268	          0.01408555	          0.11306795	          0.01185351	          0.32943525	          0.01000000	          0.00999999	          0.10456415	          0.24762693	          0.00999999	          0.15176536	          0.08924263	          0.00999999	          0.14308704	          0.19416967	          0.05753369	          0.07776219	          0.22396508	          0.02773848	          0.00999999	          0.00999999	          0.00999999	          0.00999999	          0.56830348	
          0.60053892	         -4.17765929	         -0.14500745	         -9.34935829	          0.74452801	          0.84127071	          0.01194890	        -14.83053520	         -0.17204944	          3.79967362	        -16.67467462	          3.68300740	         35.46435658	         30.60044605	         -2.21383959	         -4.90527172	        -15.90859788	          1.56148483	          0.19506768	        -11.40747687	         -0.08748037	          2.44025588	          0.24042506	          0.00999999	          0.00999999	          0.01631854	          0.10585775	          0.01498772	          0.10177443	          0.01000000	          0.27792199	          0.01000000	          0.00999999	          0.08821362	          0.20890591	          0.00999999	          0.15897612	          0.07528791	          0.00999999	          0.18356775	          0.20892169	          0.05032308	          0.06560264	          0.24401037	          0.02340106	          0.00999999	          0.03570901	          0.00999999	          0.00999999	          0.56281828	
          0.61166001	         -4.15767298	         -0.24127938	         -9.18176655	          0.76045464	          0.84127629	          0.01112141	        -14.14760866	         -0.12104163	          3.34210137	        -19.76041756	          2.16371016	         36.14111097	         30.42385978	         -2.08649063	         -4.73089540	        -17.63667580	          1.84536942	          0.17731425	        -11.32834232	         -0.41076714	          2.56835428	          0.26752729	          0.00999999	          0.00999999	          0.01376684	          0.13880029	          0.01571661	          0.08586017	          0.00999999	          0.23446377	          0.01000000	          0.00999999	          0.07441980	          0.17623963	          0.00999999	          0.16844633	          0.06351526	          0.00999999	          0.20378033	          0.22527403	          0.04623908	          0.05534446	          0.25049561	          0.01974187	          0.00999999	          0.07344635	          0.00999999	          0.00999999	          0.49725119	
          0.62278110	         -4.13829158	         -0.33836477	         -8.96925766	          0.77595707	          0.84198682	          0.01025392	        -13.09721702	         -0.04860156	          2.87341178	        -23.37424068	          0.47481012	         36.07999036	         30.22519130	         -1.95342478	         -4.58254487	        -19.30869506	          2.47638735	          0.19580619	        -11.28183623	         -0.73233317	          2.67285486	          0.28745118	          0.00999999	          0.00999999	          0.01161414	          0.16878563	          0.01533642	          0.07243443	          0.00999999	          0.19780105	          0.01000000	          0.00999999	          0.06278289	          0.14868132	          0.00999999	          0.15166978	          0.05358348	          0.00999999	          0.20955982	          0.23143476	          0.04563775	          0.04669034	          0.23587138	          0.01665487	          0.01000000	          0.13287301	          0.00999999	          0.00999999	          0.41949682	
          0.63390219	         -4.12291163	         -0.43668858	         -8.71316471	          0.79105576	          0.84339144	          0.00935211	        -11.69844182	          0.04114089	          2.42857840	        -27.40768891	         -1.54591127	         35.30575565	         29.89249059	         -1.80055320	         -4.42109059	        -20.70098569	          3.34610688	          0.29689510	        -11.25860116	         -1.04506964	          2.75536144	          0.28388866	          0.00999999	          0.00999999	          0.00999999	          0.17804557	          0.01293837	          0.06523846	          0.00999999	          0.16687121	          0.00999999	          0.00999999	          0.05296563	          0.12543226	          0.00999999	          0.12795342	          0.04520472	          0.00999999	          0.21149481	          0.22323589	          0.05315454	          0.03938945	          0.20023114	          0.01405057	          0.01000000	          0.17070605	          0.01000000	          0.00999999	          0.35390077	
